<?xml version="1.0" encoding="UTF-8" standalone="no"?>
<!-- Created with Inkscape (http://www.inkscape.org/) -->

<svg
   version="1.1"
   id="svg1"
   width="256"
   height="256"
   viewBox="0 0 256 256"
   sodipodi:docname="heart.svg"
   inkscape:version="1.3 (0e150ed6c4, 2023-07-21)"
   xmlns:inkscape="http://www.inkscape.org/namespaces/inkscape"
   xmlns:sodipodi="http://sodipodi.sourceforge.net/DTD/sodipodi-0.dtd"
   xmlns="http://www.w3.org/2000/svg"
   xmlns:svg="http://www.w3.org/2000/svg">
  <defs
     id="defs1" />
  <sodipodi:namedview
     id="namedview1"
     pagecolor="#ffffff"
     bordercolor="#000000"
     borderopacity="0.25"
     inkscape:showpageshadow="2"
     inkscape:pageopacity="0.0"
     inkscape:pagecheckerboard="0"
     inkscape:deskcolor="#d1d1d1"
     inkscape:zoom="1"
     inkscape:cx="290.5"
     inkscape:cy="282.5"
     inkscape:window-width="2560"
     inkscape:window-height="1379"
     inkscape:window-x="0"
     inkscape:window-y="0"
     inkscape:window-maximized="1"
     inkscape:current-layer="g1">
    <inkscape:page
       x="0"
       y="0"
       inkscape:label="1"
       id="page1"
       width="256"
       height="256"
       margin="0"
       bleed="0" />
  </sodipodi:namedview>
  <g
     id="g1"
     inkscape:groupmode="layer"
     inkscape:label="1">
    <path
       id="path14"
       d="M 197.52978,12.818173 C 169.3034,8.5467332 138.79747,23.522922 128.97752,50.18455 124.07408,37.431253 113.85751,26.813675 101.96719,20.166793 82.044001,9.0174633 62.465091,8.8605533 41.138411,17.848009 24.667241,24.78692 11.743931,43.023353 4.9009212,58.884341 c -8.65186,20.040895 -4.2758,44.575519 1.09837,64.895369 0.99811,3.77892 6.8604698,2.17931 5.8579698,-1.61268 -8.9700198,-33.896929 -7.4837198,-71.31997 23.40575,-94.01962 14.50983,-10.656806 39.48467,-14.409571 55.6246,-7.039157 16.911409,7.723458 33.731309,22.839123 35.025819,42.587992 0.25727,3.927112 5.73156,3.879166 6.07153,0 3.19051,-36.1634 47.56116,-55.4807662 78.6555,-40.739942 33.04264,15.660493 46.98586,60.009366 36.11111,93.622987 -6.86481,21.209 -34.09305,15.93072 -52.00694,16.04405 -10.17738,0.061 -20.35473,0.16998 -30.52773,0.0785 -1.37296,-0.0131 -6.99992,0 -6.83866,0.10026 -1.5996,-0.98505 -5.71849,-13.13686 -6.68176,-15.60819 -1.28143,-3.29075 -5.53107,-2.61953 -5.96692,0.80634 -1.99191,15.74331 -6.1195,31.05075 -9.36668,46.54562 -3.15997,-26.04706 -4.45886,-52.3077 -8.80004,-78.219651 -0.50123,-2.994367 -5.21288,-2.793872 -5.85797,0 -4.17989,18.088241 -8.35981,36.176481 -12.53973,54.264721 -1.86546,-8.39905 -3.73096,-16.79809 -5.60081,-25.19278 -0.61891,-2.79387 -5.387239,-2.99872 -5.853619,0 -0.65379,4.17119 -1.69548,15.51666 -4.51551,17.49547 -1.92215,1.35117 -9.17924,-0.0566 -11.6898,-0.0741 -11.02728,-0.0697 -22.05459,-0.14383 -33.08186,-0.21356 -12.0472,-0.0785 -30.96793,-2.47569 -30.43182,15.5864 0.27884,9.4669 9.04848,19.05585 14.64928,26.06014 8.11575,10.14685 17.80494,18.89458 28.01279,26.88391 20.99979,16.42761 44.422989,29.15476 67.105189,43.02386 0.94146,0.5797 2.11828,0.51867 3.06412,0 41.09297,-22.42942 74.2446,-51.50571 103.43421,-88.10062 2.4103,-3.02923 -1.85677,-7.35298 -4.2976,-4.29759 -19.30428,24.20773 -40.63097,47.13403 -66.16373,64.8082 -8.14187,5.64004 -25.95988,21.83664 -36.08931,20.44189 -4.7596,-0.65816 -11.31929,-6.73842 -15.48179,-9.20539 -6.381,-3.77892 -12.744549,-7.57963 -19.025339,-11.51546 -13.81677,-8.66491 -27.36334,-17.93132 -39.52387,-28.83657 -7.30069,-6.55099 -43.7386598,-41.44168 -19.72708,-48.86875 9.06155,-2.80259 23.86774,0.15691 33.37388,0.21794 9.42767,0.061 18.85535,0.12641 28.27868,0.17871 1.37296,0.004 2.52798,-0.95453 2.92899,-2.23161 0.7279,-2.31006 1.37731,-4.59397 2.03548,-6.88225 1.874189,8.41648 3.744039,16.83732 5.613879,25.2538 0.64945,2.91155 5.19546,2.8854 5.86232,0 3.97071,-17.18601 7.94142,-34.37637 11.91209,-51.56238 3.43025,26.99289 4.65065,54.23857 9.15746,81.10941 0.61457,3.68738 5.57466,2.26212 5.96259,-0.80634 2.30569,-18.31925 7.50552,-36.06316 10.85729,-54.17755 2.07033,4.53732 4.89036,8.13753 10.44324,9.0354 13.75578,2.23597 29.86083,0.0173 43.76917,-0.0785 12.78382,-0.0872 29.76933,2.759 40.43921,-5.87541 9.25769,-7.47938 11.10573,-20.73392 12.07769,-31.82658 3.28204,-37.536371 -17.3211,-81.950623 -58.13078,-88.122417"
       style="fill:#2e2d2d;fill-opacity:1;fill-rule:nonzero;stroke:none;stroke-width:0.43586" />
  </g>
</svg>
